<svg width="1024" height="1024" viewBox="0 0 1024 1024" fill="none" xmlns="http://www.w3.org/2000/svg">
<rect width="1024" height="1024" fill="white"/>
<path d="M167.281 410.009C168.638 409.957 169.835 410.121 171.085 410.675C174.276 412.093 175.86 415.162 177.049 418.258C177.621 417.243 178.23 416.29 178.986 415.398C180.642 413.443 182.966 411.937 185.575 411.774C187.608 411.648 189.548 412.375 191.066 413.718C193.771 416.113 194.579 419.497 194.755 422.96C195.32 422.213 195.932 421.506 196.589 420.838C198.596 418.788 201.272 417.205 204.215 417.219C206.241 417.23 208.124 418.013 209.536 419.469C212.074 422.083 212.268 425.507 212.204 428.94C213.043 428.265 213.878 427.612 214.832 427.107C217.163 425.874 219.938 425.236 222.508 426.075C224.451 426.709 225.994 428.14 226.901 429.956C228.47 433.097 227.946 436.679 226.905 439.89C227.666 439.464 228.447 439.075 229.246 438.724C231.854 437.596 235.006 437.185 237.692 438.287C237.924 438.38 238.15 438.484 238.371 438.6C238.592 438.716 238.807 438.842 239.015 438.98C239.223 439.118 239.423 439.266 239.617 439.424C239.809 439.583 239.993 439.751 240.169 439.929C240.344 440.106 240.51 440.292 240.667 440.487C240.823 440.681 240.969 440.883 241.105 441.093C241.24 441.302 241.365 441.518 241.478 441.741C241.591 441.963 241.693 442.191 241.783 442.424C243.051 445.667 242.06 449.037 240.723 452.072C241.534 451.861 242.354 451.695 243.184 451.576C245.837 451.19 248.775 451.59 250.947 453.258C252.542 454.484 253.532 456.279 253.777 458.272C254.238 462.013 252.277 465.072 250.086 467.883C250.606 467.86 251.126 467.839 251.646 467.822C254.855 467.718 258.13 468.16 260.548 470.485C260.727 470.654 260.897 470.832 261.057 471.019C261.218 471.206 261.369 471.4 261.51 471.602C261.651 471.804 261.781 472.012 261.901 472.227C262.021 472.443 262.13 472.664 262.227 472.89C262.325 473.116 262.411 473.346 262.485 473.581C262.559 473.816 262.621 474.053 262.672 474.295C262.722 474.536 262.76 474.779 262.785 475.024C262.81 475.269 262.823 475.514 262.824 475.761C262.834 479.42 260.517 482.083 258.065 484.499C259.081 484.631 260.075 484.806 261.062 485.084C263.545 485.785 265.935 487.292 267.189 489.607C268.147 491.375 268.317 493.426 267.747 495.347C266.673 498.96 263.719 500.999 260.566 502.683C263.651 503.617 266.713 504.848 268.622 507.601C269.748 509.227 270.254 511.328 269.839 513.279C269.311 515.753 267.548 517.866 265.48 519.248C263.171 520.791 260.399 521.391 257.671 520.838C254.418 520.178 252.195 518.121 250.398 515.439C249.528 516.77 248.525 517.965 247.247 518.925C246.973 519.135 246.69 519.33 246.397 519.511C246.104 519.692 245.802 519.858 245.492 520.009C245.183 520.159 244.866 520.294 244.542 520.412C244.219 520.531 243.891 520.633 243.557 520.718C243.223 520.804 242.886 520.872 242.545 520.924C242.205 520.975 241.862 521.01 241.519 521.027C241.174 521.043 240.83 521.043 240.486 521.025C240.142 521.007 239.8 520.972 239.459 520.92C235.953 520.364 233.652 518.258 231.633 515.489C230.74 516.84 229.638 518.113 228.315 519.06C226.037 520.692 223.23 521.377 220.463 520.87C217.094 520.253 214.876 518.19 212.968 515.478C212.02 516.83 210.957 518.084 209.607 519.05C207.364 520.653 204.602 521.374 201.87 520.907C198.42 520.316 196.18 518.243 194.238 515.471C193.136 516.982 192.014 518.309 190.438 519.345C190.153 519.533 189.858 519.706 189.555 519.864C189.252 520.022 188.942 520.165 188.625 520.293C188.308 520.42 187.985 520.531 187.657 520.626C187.329 520.721 186.997 520.8 186.66 520.862C186.324 520.923 185.986 520.968 185.645 520.997C185.304 521.025 184.963 521.036 184.622 521.03C184.28 521.024 183.939 521.001 183.6 520.961C183.26 520.922 182.924 520.865 182.59 520.791C179.408 520.079 177.226 518.091 175.51 515.412C174.31 517.095 173.167 518.488 171.377 519.567C171.086 519.743 170.786 519.905 170.478 520.052C170.17 520.199 169.855 520.33 169.534 520.445C169.213 520.56 168.887 520.659 168.556 520.741C168.226 520.824 167.891 520.889 167.554 520.938C167.216 520.987 166.877 521.019 166.536 521.033C166.195 521.048 165.855 521.046 165.514 521.027C165.174 521.007 164.835 520.971 164.498 520.917C164.161 520.864 163.828 520.793 163.498 520.706C160.256 519.847 158.082 517.611 156.435 514.794C155.674 515.144 154.906 515.531 154.198 515.978C152.006 517.362 150.188 519.56 149.627 522.127C149.176 524.192 149.551 526.461 150.719 528.231C151.806 529.876 153.528 530.953 155.45 531.339C161.037 532.459 166.135 528.406 170.536 525.549C172.12 532.46 172.708 539.4 176.545 545.576C181.884 554.17 191.172 559.377 200.826 561.623C213.246 564.513 227.713 562.937 238.629 556.1C245.355 551.888 250.377 545.75 252.635 538.086C253.7 534.47 254.285 530.639 255.124 526.956C259.118 529.553 262.962 532.204 267.459 533.87C264.504 537.272 261.538 538.278 257.2 538.924C257.81 539.365 258.395 539.862 258.952 540.368C261.032 542.263 262.739 545.011 262.832 547.888C262.841 548.134 262.838 548.38 262.822 548.625C262.807 548.871 262.78 549.115 262.74 549.358C262.7 549.6 262.648 549.841 262.584 550.079C262.52 550.316 262.444 550.55 262.357 550.779C262.27 551.009 262.171 551.234 262.061 551.454C261.951 551.675 261.83 551.889 261.699 552.097C261.567 552.304 261.426 552.505 261.274 552.699C261.122 552.893 260.961 553.079 260.791 553.256C258.348 555.822 255.12 556.212 251.768 556.281L251.559 556.295L251.456 556.545C251.626 556.801 251.791 557.06 251.953 557.322C253.606 560.009 254.908 562.947 254.09 566.161C253.606 568.068 252.315 569.576 250.636 570.553C247.313 572.488 243.618 571.928 240.089 570.97C240.5 571.628 240.863 572.312 241.179 573.021C242.353 575.614 242.849 578.872 241.792 581.585C241.07 583.435 239.641 584.868 237.825 585.658C234.494 587.106 231.155 586.066 227.957 584.826C228.202 585.805 228.362 586.818 228.474 587.82C228.761 590.375 228.227 593.152 226.561 595.169C225.29 596.709 223.484 597.623 221.502 597.805C217.853 598.14 214.795 596.301 212.12 594.03C212.193 594.848 212.229 595.668 212.229 596.49C212.245 599.46 211.573 602.499 209.393 604.657C209.219 604.833 209.037 604.999 208.846 605.155C208.655 605.312 208.456 605.458 208.251 605.595C208.045 605.732 207.833 605.858 207.614 605.972C207.395 606.087 207.171 606.191 206.942 606.284C206.713 606.376 206.48 606.457 206.243 606.525C206.006 606.594 205.766 606.651 205.523 606.695C205.28 606.74 205.035 606.772 204.789 606.791C204.542 606.811 204.296 606.818 204.049 606.813C200.526 606.755 197.786 604.52 195.465 602.099C195.366 603.06 195.221 603.997 194.972 604.932C194.313 607.412 192.823 609.849 190.535 611.123C190.314 611.245 190.087 611.357 189.854 611.457C189.621 611.556 189.384 611.644 189.143 611.72C188.901 611.796 188.656 611.86 188.409 611.912C188.161 611.964 187.911 612.003 187.659 612.03C187.407 612.057 187.155 612.071 186.902 612.072C186.649 612.073 186.396 612.062 186.144 612.039C185.892 612.015 185.642 611.979 185.393 611.93C185.145 611.881 184.899 611.82 184.657 611.746C181.108 610.703 179.025 607.775 177.35 604.684C177.014 605.773 176.644 606.877 176.165 607.911C175.034 610.352 173.073 612.597 170.502 613.543C170.273 613.628 170.042 613.701 169.807 613.762C169.572 613.823 169.334 613.873 169.093 613.911C168.853 613.948 168.612 613.974 168.369 613.988C168.126 614.002 167.884 614.004 167.641 613.993C167.398 613.983 167.156 613.961 166.915 613.927C166.674 613.892 166.436 613.846 166.2 613.788C165.964 613.73 165.731 613.66 165.502 613.579C165.272 613.498 165.048 613.406 164.828 613.302C161.699 611.851 160.102 608.855 158.973 605.763C158.346 606.805 157.697 607.809 156.897 608.73C155.239 610.64 152.913 612.091 150.342 612.239C148.322 612.356 146.393 611.629 144.889 610.289C142.255 607.944 141.373 604.498 141.206 601.104C140.434 602.074 139.615 603.014 138.697 603.851C136.737 605.638 134.108 606.917 131.408 606.777C129.381 606.672 127.523 605.798 126.183 604.267C124.032 601.808 123.557 598.366 123.753 595.221C122.962 595.799 122.154 596.341 121.295 596.813C118.976 598.088 116.176 598.742 113.59 597.953C113.351 597.88 113.116 597.795 112.885 597.698C112.655 597.601 112.43 597.493 112.21 597.374C111.99 597.254 111.777 597.123 111.571 596.982C111.365 596.84 111.166 596.689 110.975 596.528C110.785 596.366 110.603 596.195 110.429 596.015C110.256 595.834 110.092 595.646 109.938 595.45C109.784 595.253 109.64 595.048 109.506 594.837C109.373 594.625 109.25 594.408 109.139 594.184C107.571 591.1 108.042 587.4 109.061 584.229C108.455 584.538 107.839 584.826 107.213 585.093C104.403 586.302 101.151 586.906 98.2315 585.701C98.0093 585.612 97.7919 585.511 97.5793 585.4C97.3672 585.289 97.161 585.167 96.9607 585.036C96.7605 584.904 96.5674 584.762 96.3814 584.611C96.1951 584.46 96.017 584.3 95.8472 584.131C95.6769 583.963 95.5155 583.786 95.3629 583.601C95.2104 583.416 95.0676 583.224 94.9345 583.025C94.801 582.826 94.6778 582.62 94.565 582.409C94.4522 582.197 94.3501 581.981 94.2589 581.759C92.912 578.506 93.9274 575.105 95.2317 572.029C94.1296 572.263 93.0211 572.453 91.8967 572.542C89.3463 572.742 86.5912 572.124 84.6359 570.404C83.0971 569.051 82.2706 567.173 82.1717 565.138C81.9993 561.609 83.7587 558.673 86.0303 556.136C84.9306 556.201 83.8278 556.256 82.7257 556.224C79.9243 556.141 77.005 555.238 75.0738 553.116C73.7219 551.629 73.0704 549.736 73.1813 547.735C73.3702 544.325 75.5295 541.705 77.9741 539.529C76.6894 539.353 75.4344 539.159 74.2068 538.728C71.8256 537.89 69.6643 536.305 68.5875 533.969C67.7287 532.105 67.7135 530.042 68.4227 528.128C69.6276 524.878 72.3726 522.804 75.4078 521.38C74.3202 521.034 73.2142 520.672 72.1704 520.21C69.7379 519.133 67.453 517.174 66.4871 514.645C65.7659 512.755 65.8559 510.71 66.6887 508.873C68.1204 505.719 71.0993 504.175 74.1707 502.987C73.6108 502.632 73.0607 502.262 72.5202 501.878C70.2462 500.266 68.2725 497.97 67.8137 495.14C67.4854 493.119 68.0203 491.123 69.2486 489.494C71.581 486.403 75.1448 485.605 78.7606 485.097C78.1674 484.659 77.6147 484.168 77.0779 483.663C74.9477 481.659 73.2409 478.985 73.1978 475.977C73.1693 473.951 73.9089 472.04 75.3381 470.596C77.9107 467.997 81.382 467.777 84.821 467.785C84.2358 467.019 83.7061 466.215 83.2321 465.376C81.9505 463.119 81.2419 460.367 81.9638 457.813C82.0327 457.569 82.114 457.328 82.2078 457.092C82.3012 456.856 82.4062 456.626 82.5228 456.4C82.6399 456.175 82.7681 455.956 82.9076 455.743C83.0466 455.531 83.1959 455.327 83.3556 455.129C83.5158 454.932 83.6854 454.744 83.8646 454.564C84.0437 454.384 84.2316 454.214 84.428 454.053C84.6245 453.892 84.8286 453.742 85.0403 453.601C85.252 453.461 85.4702 453.333 85.695 453.215C88.9077 451.5 92.5337 452.079 95.8636 453.061C95.3116 452.19 94.8724 451.199 94.5003 450.239C93.5104 447.683 93.2036 444.658 94.3482 442.101C94.4467 441.878 94.5557 441.661 94.6753 441.449C94.7953 441.238 94.9256 441.033 95.0663 440.834C95.2066 440.635 95.3564 440.444 95.5157 440.26C95.6754 440.077 95.8438 439.901 96.0208 439.734C96.1979 439.567 96.3827 439.41 96.5754 439.262C96.7681 439.113 96.9677 438.974 97.1743 438.846C97.3809 438.717 97.5935 438.599 97.8119 438.492C98.03 438.385 98.2531 438.289 98.4812 438.204C101.695 436.987 105.013 437.922 108.003 439.286C107.784 438.312 107.617 437.329 107.505 436.337C107.213 433.723 107.735 430.888 109.448 428.824C110.752 427.252 112.612 426.336 114.641 426.183C118.225 425.911 121.217 427.752 123.843 429.98C123.741 428.619 123.641 427.262 123.78 425.9C124.05 423.24 125.091 420.523 127.22 418.804C128.79 417.535 130.737 417.013 132.735 417.23C135.939 417.579 138.524 419.642 140.476 422.078C140.61 420.848 140.822 419.652 141.206 418.473C141.977 416.107 143.481 413.897 145.742 412.749C147.6 411.805 149.726 411.719 151.691 412.377C155.08 413.509 157.094 416.352 158.641 419.402C159.171 417.601 159.845 415.793 160.886 414.222C162.468 411.835 164.498 410.551 167.281 410.009Z" fill="black"/>
<path d="M215.371 525.917C216.209 525.812 216.923 525.779 217.736 526.05C219.257 526.556 220.377 527.594 221.085 529.015C222.146 531.147 222.302 533.84 221.506 536.083C220.762 538.179 219.516 539.412 217.518 540.343C216.776 540.408 216.071 540.417 215.351 540.188C213.898 539.726 212.729 538.651 212.023 537.316C210.934 535.257 210.773 532.636 211.456 530.426C212.128 528.253 213.403 526.984 215.371 525.917Z" fill="black"/>
<path d="M236.551 527.051C237.088 526.999 237.688 526.982 238.222 527.068C239.481 527.271 240.651 528.279 241.293 529.34C242.289 530.987 242.464 533.223 241.975 535.061C241.478 536.932 240.483 538.119 238.82 539.087C238.217 539.165 237.577 539.213 236.973 539.114C235.828 538.926 234.705 538.026 234.087 537.074C233.02 535.428 232.774 533.202 233.259 531.322C233.769 529.346 234.81 528.093 236.551 527.051Z" fill="black"/>
<path d="M360.591 503.682C360.227 500.015 358.667 497.167 355.909 495.136C353.152 493.106 349.409 492.091 344.682 492.091C341.47 492.091 338.758 492.545 336.545 493.455C334.333 494.333 332.636 495.561 331.455 497.136C330.303 498.712 329.727 500.5 329.727 502.5C329.667 504.167 330.015 505.621 330.773 506.864C331.561 508.106 332.636 509.182 334 510.091C335.364 510.97 336.939 511.742 338.727 512.409C340.515 513.045 342.424 513.591 344.455 514.045L352.818 516.045C356.879 516.955 360.606 518.167 364 519.682C367.394 521.197 370.333 523.061 372.818 525.273C375.303 527.485 377.227 530.091 378.591 533.091C379.985 536.091 380.697 539.53 380.727 543.409C380.697 549.106 379.242 554.045 376.364 558.227C373.515 562.379 369.394 565.606 364 567.909C358.636 570.182 352.167 571.318 344.591 571.318C337.076 571.318 330.53 570.167 324.955 567.864C319.409 565.561 315.076 562.152 311.955 557.636C308.864 553.091 307.242 547.47 307.091 540.773H326.136C326.348 543.894 327.242 546.5 328.818 548.591C330.424 550.652 332.561 552.212 335.227 553.273C337.924 554.303 340.97 554.818 344.364 554.818C347.697 554.818 350.591 554.333 353.045 553.364C355.53 552.394 357.455 551.045 358.818 549.318C360.182 547.591 360.864 545.606 360.864 543.364C360.864 541.273 360.242 539.515 359 538.091C357.788 536.667 356 535.455 353.636 534.455C351.303 533.455 348.439 532.545 345.045 531.727L334.909 529.182C327.061 527.273 320.864 524.288 316.318 520.227C311.773 516.167 309.515 510.697 309.545 503.818C309.515 498.182 311.015 493.258 314.045 489.045C317.106 484.833 321.303 481.545 326.636 479.182C331.97 476.818 338.03 475.636 344.818 475.636C351.727 475.636 357.758 476.818 362.909 479.182C368.091 481.545 372.121 484.833 375 489.045C377.879 493.258 379.364 498.136 379.455 503.682H360.591ZM425.148 571.364C418.087 571.364 411.981 569.864 406.83 566.864C401.708 563.833 397.754 559.621 394.966 554.227C392.178 548.803 390.784 542.515 390.784 535.364C390.784 528.152 392.178 521.848 394.966 516.455C397.754 511.03 401.708 506.818 406.83 503.818C411.981 500.788 418.087 499.273 425.148 499.273C432.208 499.273 438.299 500.788 443.42 503.818C448.572 506.818 452.542 511.03 455.33 516.455C458.117 521.848 459.511 528.152 459.511 535.364C459.511 542.515 458.117 548.803 455.33 554.227C452.542 559.621 448.572 563.833 443.42 566.864C438.299 569.864 432.208 571.364 425.148 571.364ZM425.239 556.364C428.451 556.364 431.133 555.455 433.284 553.636C435.436 551.788 437.057 549.273 438.148 546.091C439.269 542.909 439.83 539.288 439.83 535.227C439.83 531.167 439.269 527.545 438.148 524.364C437.057 521.182 435.436 518.667 433.284 516.818C431.133 514.97 428.451 514.045 425.239 514.045C421.996 514.045 419.269 514.97 417.057 516.818C414.875 518.667 413.223 521.182 412.102 524.364C411.011 527.545 410.466 531.167 410.466 535.227C410.466 539.288 411.011 542.909 412.102 546.091C413.223 549.273 414.875 551.788 417.057 553.636C419.269 555.455 421.996 556.364 425.239 556.364ZM509.648 500.182V514.727H466.557V500.182H509.648ZM476.42 570V495.136C476.42 490.076 477.405 485.879 479.375 482.545C481.375 479.212 484.102 476.712 487.557 475.045C491.011 473.379 494.936 472.545 499.33 472.545C502.299 472.545 505.011 472.773 507.466 473.227C509.951 473.682 511.799 474.091 513.011 474.455L509.557 489C508.799 488.758 507.86 488.53 506.739 488.318C505.648 488.106 504.527 488 503.375 488C500.527 488 498.542 488.667 497.42 490C496.299 491.303 495.739 493.136 495.739 495.5V570H476.42ZM558.614 500.182V514.727H516.568V500.182H558.614ZM526.114 483.455H545.477V548.545C545.477 550.333 545.75 551.727 546.295 552.727C546.841 553.697 547.598 554.379 548.568 554.773C549.568 555.167 550.72 555.364 552.023 555.364C552.932 555.364 553.841 555.288 554.75 555.136C555.659 554.955 556.356 554.818 556.841 554.727L559.886 569.136C558.917 569.439 557.553 569.788 555.795 570.182C554.038 570.606 551.902 570.864 549.386 570.955C544.72 571.136 540.629 570.515 537.114 569.091C533.629 567.667 530.917 565.455 528.977 562.455C527.038 559.455 526.083 555.667 526.114 551.091V483.455ZM622.091 503.682C621.727 500.015 620.167 497.167 617.409 495.136C614.652 493.106 610.909 492.091 606.182 492.091C602.97 492.091 600.258 492.545 598.045 493.455C595.833 494.333 594.136 495.561 592.955 497.136C591.803 498.712 591.227 500.5 591.227 502.5C591.167 504.167 591.515 505.621 592.273 506.864C593.061 508.106 594.136 509.182 595.5 510.091C596.864 510.97 598.439 511.742 600.227 512.409C602.015 513.045 603.924 513.591 605.955 514.045L614.318 516.045C618.379 516.955 622.106 518.167 625.5 519.682C628.894 521.197 631.833 523.061 634.318 525.273C636.803 527.485 638.727 530.091 640.091 533.091C641.485 536.091 642.197 539.53 642.227 543.409C642.197 549.106 640.742 554.045 637.864 558.227C635.015 562.379 630.894 565.606 625.5 567.909C620.136 570.182 613.667 571.318 606.091 571.318C598.576 571.318 592.03 570.167 586.455 567.864C580.909 565.561 576.576 562.152 573.455 557.636C570.364 553.091 568.742 547.47 568.591 540.773H587.636C587.848 543.894 588.742 546.5 590.318 548.591C591.924 550.652 594.061 552.212 596.727 553.273C599.424 554.303 602.47 554.818 605.864 554.818C609.197 554.818 612.091 554.333 614.545 553.364C617.03 552.394 618.955 551.045 620.318 549.318C621.682 547.591 622.364 545.606 622.364 543.364C622.364 541.273 621.742 539.515 620.5 538.091C619.288 536.667 617.5 535.455 615.136 534.455C612.803 533.455 609.939 532.545 606.545 531.727L596.409 529.182C588.561 527.273 582.364 524.288 577.818 520.227C573.273 516.167 571.015 510.697 571.045 503.818C571.015 498.182 572.515 493.258 575.545 489.045C578.606 484.833 582.803 481.545 588.136 479.182C593.47 476.818 599.53 475.636 606.318 475.636C613.227 475.636 619.258 476.818 624.409 479.182C629.591 481.545 633.621 484.833 636.5 489.045C639.379 493.258 640.864 498.136 640.955 503.682H622.091ZM674.466 529.636V570H655.102V476.909H673.92V512.5H674.739C676.314 508.379 678.86 505.152 682.375 502.818C685.89 500.455 690.299 499.273 695.602 499.273C700.451 499.273 704.678 500.333 708.284 502.455C711.92 504.545 714.739 507.561 716.739 511.5C718.769 515.409 719.769 520.091 719.739 525.545V570H700.375V529C700.405 524.697 699.314 521.348 697.102 518.955C694.92 516.561 691.86 515.364 687.92 515.364C685.284 515.364 682.951 515.924 680.92 517.045C678.92 518.167 677.345 519.803 676.193 521.955C675.072 524.076 674.496 526.636 674.466 529.636ZM766.795 571.364C759.614 571.364 753.432 569.909 748.25 567C743.098 564.061 739.129 559.909 736.341 554.545C733.553 549.152 732.159 542.773 732.159 535.409C732.159 528.227 733.553 521.924 736.341 516.5C739.129 511.076 743.053 506.848 748.114 503.818C753.205 500.788 759.174 499.273 766.023 499.273C770.629 499.273 774.917 500.015 778.886 501.5C782.886 502.955 786.371 505.152 789.341 508.091C792.341 511.03 794.674 514.727 796.341 519.182C798.008 523.606 798.841 528.788 798.841 534.727V540.045H739.886V528.045H780.614C780.614 525.258 780.008 522.788 778.795 520.636C777.583 518.485 775.902 516.803 773.75 515.591C771.629 514.348 769.159 513.727 766.341 513.727C763.402 513.727 760.795 514.409 758.523 515.773C756.28 517.106 754.523 518.909 753.25 521.182C751.977 523.424 751.326 525.924 751.295 528.682V540.091C751.295 543.545 751.932 546.53 753.205 549.045C754.508 551.561 756.341 553.5 758.705 554.864C761.068 556.227 763.871 556.909 767.114 556.909C769.265 556.909 771.235 556.606 773.023 556C774.811 555.394 776.341 554.485 777.614 553.273C778.886 552.061 779.856 550.576 780.523 548.818L798.432 550C797.523 554.303 795.659 558.061 792.841 561.273C790.053 564.455 786.447 566.939 782.023 568.727C777.629 570.485 772.553 571.364 766.795 571.364ZM843.295 571.364C836.114 571.364 829.932 569.909 824.75 567C819.598 564.061 815.629 559.909 812.841 554.545C810.053 549.152 808.659 542.773 808.659 535.409C808.659 528.227 810.053 521.924 812.841 516.5C815.629 511.076 819.553 506.848 824.614 503.818C829.705 500.788 835.674 499.273 842.523 499.273C847.129 499.273 851.417 500.015 855.386 501.5C859.386 502.955 862.871 505.152 865.841 508.091C868.841 511.03 871.174 514.727 872.841 519.182C874.508 523.606 875.341 528.788 875.341 534.727V540.045H816.386V528.045H857.114C857.114 525.258 856.508 522.788 855.295 520.636C854.083 518.485 852.402 516.803 850.25 515.591C848.129 514.348 845.659 513.727 842.841 513.727C839.902 513.727 837.295 514.409 835.023 515.773C832.78 517.106 831.023 518.909 829.75 521.182C828.477 523.424 827.826 525.924 827.795 528.682V540.091C827.795 543.545 828.432 546.53 829.705 549.045C831.008 551.561 832.841 553.5 835.205 554.864C837.568 556.227 840.371 556.909 843.614 556.909C845.765 556.909 847.735 556.606 849.523 556C851.311 555.394 852.841 554.485 854.114 553.273C855.386 552.061 856.356 550.576 857.023 548.818L874.932 550C874.023 554.303 872.159 558.061 869.341 561.273C866.553 564.455 862.947 566.939 858.523 568.727C854.129 570.485 849.053 571.364 843.295 571.364ZM887.977 596.182V500.182H907.068V511.909H907.932C908.78 510.03 910.008 508.121 911.614 506.182C913.25 504.212 915.371 502.576 917.977 501.273C920.614 499.939 923.886 499.273 927.795 499.273C932.886 499.273 937.583 500.606 941.886 503.273C946.189 505.909 949.629 509.894 952.205 515.227C954.78 520.53 956.068 527.182 956.068 535.182C956.068 542.97 954.811 549.545 952.295 554.909C949.811 560.242 946.417 564.288 942.114 567.045C937.841 569.773 933.053 571.136 927.75 571.136C923.992 571.136 920.795 570.515 918.159 569.273C915.553 568.03 913.417 566.47 911.75 564.591C910.083 562.682 908.811 560.758 907.932 558.818H907.341V596.182H887.977ZM906.932 535.091C906.932 539.242 907.508 542.864 908.659 545.955C909.811 549.045 911.477 551.455 913.659 553.182C915.841 554.879 918.492 555.727 921.614 555.727C924.765 555.727 927.432 554.864 929.614 553.136C931.795 551.379 933.447 548.955 934.568 545.864C935.72 542.742 936.295 539.152 936.295 535.091C936.295 531.061 935.735 527.515 934.614 524.455C933.492 521.394 931.841 519 929.659 517.273C927.477 515.545 924.795 514.682 921.614 514.682C918.462 514.682 915.795 515.515 913.614 517.182C911.462 518.848 909.811 521.212 908.659 524.273C907.508 527.333 906.932 530.939 906.932 535.091Z" fill="black"/>
</svg>
